# xmcd
#
# Track frame offsets: 
#        150
#        13758
#        25633
#        31797
#        42341
#        46601
#        59929
#        70984
#        79160
#        92570
#        108299
#        125929
#        138077
#        142680
#        155924
#        169728
#        194290
#        206782
#
# Disc length: 2929 seconds
#
# Revision: 0
# Processed by: cddbd v1.5.1PL0 Copyright (c) Steve Scherf et al.
# Submitted via: ExactAudioCopy v0.95a3
#
DISCID=f80b6f12
DTITLE=Elliot Sharp's Terraplane - Music for Yellow Man
DYEAR=2002
DGENRE=Blues
TTITLE0=Alma Speaks
TTITLE1=Odelia's Blues
TTITLE2=Lightskin Man
TTITLE3=Jungle Kids
TTITLE4=She's Changing
TTITLE5=High Yaller Party
TTITLE6=Really Touch Her
TTITLE7=Workin' At The Mill
TTITLE8=Blood Kin
TTITLE9=Alma's Train
TTITLE10=Drinkin'
TTITLE11=Country To City
TTITLE12=Things Lookin' Up
TTITLE13=Eugene's Train
TTITLE14=A Death
TTITLE15=Vicious
TTITLE16=Fight
TTITLE17=Listen And Watch
EXTD=
EXTT0=
EXTT1=
EXTT2=
EXTT3=
EXTT4=
EXTT5=
EXTT6=
EXTT7=
EXTT8=
EXTT9=
EXTT10=
EXTT11=
EXTT12=
EXTT13=
EXTT14=
EXTT15=
EXTT16=
EXTT17=
PLAYORDER=
